<svg width="800" height="600" xmlns="http://www.w3.org/2000/svg">
    <svg width="800" height="600" xmlns="http://www.w3.org/2000/svg">
 <title>candy-1</title>

 <g>
  <title>Layer 1</title>
  <path d="m323.0737,103.84435c0.76923,0 1.31854,0.93205 3.0769,3.07691c1.37936,1.68256 3.0769,3.0769 5.38458,5.38459l1.53845,1.53845" id="svg_62" stroke-width="5" stroke="#6D97AB" fill="none"/>
  <polyline stroke-linecap="round" id="svg_84" points="329.2275166854114,195.38240584958328 329.99674402368714,196.92086052613476 329.99674402368714,196.92086052613476 " stroke-width="5" stroke="#6D97AB" fill="none"/>
  <path d="m361.53506,239.99759c-0.76923,1.53845 -1.53845,3.0769 -3.0769,5.3846l-0.76923,0l-1.53845,0.76923l-1.53845,1.53845" id="svg_85" stroke-width="5" stroke="#6D97AB" fill="none"/>
  <path d="m322.30447,287.6897c0,0.76923 0.38171,3.00598 0.76923,6.15381c0.28195,2.29037 0,5.38458 3.84613,9.99997l3.0769,4.61536" id="svg_86" stroke-width="5" stroke="#6D97AB" fill="none"/>
  <path d="m368.4581,331.53564c0.76923,1.53845 1.53845,3.0769 2.30771,3.84613l4.61536,0.76923l3.84613,1.53845" id="svg_87" stroke-width="5" stroke="#6D97AB" fill="none"/>
  <path d="m436.91934,290.7666c0,-0.76923 0.76923,-10.7692 3.84613,-23.07681l1.53845,-7.69229l0.76923,-2.30768" id="svg_88" stroke-width="5" stroke="#6D97AB" fill="none"/>
  <path d="m414.61176,222.30536c-0.76923,0.76923 -3.65134,4.13179 -6.92307,6.15382c-2.9263,1.80855 -6.15381,4.61536 -9.23071,7.69228l-0.76923,1.53845" id="svg_89" stroke-width="5" stroke="#6D97AB" fill="none"/>
  <path d="m354.61203,286.92047c-1.53845,3.84613 -2.86896,6.32983 -6.15384,9.99994c-2.17654,2.43176 -4.61536,3.0769 -5.38458,3.0769l-0.76923,0" id="svg_90" stroke-width="5" stroke="#6D97AB" fill="none"/>
  <path d="m364.61197,199.22855c0,1.53845 -0.49103,4.08105 1.53845,7.69228c1.88431,3.35292 6.15384,6.92303 9.23074,9.99995l0.76923,0.76923" id="svg_91" stroke-width="5" stroke="#6D97AB" fill="none"/>
  <path d="m420.76556,180.76709c1.53845,-1.53845 3.0769,-4.61537 4.61536,-7.69228l1.53848,-3.0769l1.53845,-3.84615" id="svg_92" stroke-width="5" stroke="#6D97AB" fill="none"/>
  <path d="m398.45798,144.6134c-1.53845,0.76923 -4.61536,3.0769 -7.69226,3.84613l-3.07693,0l-4.61536,2.30769l-3.0769,0.76923" id="svg_93" stroke-width="5" stroke="#6D97AB" fill="none"/>
  <path d="m337.68903,143.07495c-0.76923,0.76923 -2.28348,3.39389 -3.84613,6.15381c-1.60797,2.83997 -4.61539,5.3846 -6.15384,9.23073l-1.53845,3.84615" id="svg_94" stroke-width="5" stroke="#6D97AB" fill="none"/>
  <path d="m369.99655,117.69044c0.76926,-0.76923 3.88733,-1.18498 5.38461,-1.53845c1.67404,-0.39519 3.84613,-3.07691 6.92303,-6.15382l3.0769,-3.0769l1.53845,-1.53846" id="svg_95" stroke-width="5" stroke="#6D97AB" fill="none"/>
  <path d="m426.9194,106.92126c-0.76926,1.53845 -0.76926,4.61536 0.76923,9.23073l3.84613,4.61536l3.0769,3.0769" id="svg_96" stroke-width="5" stroke="#6D97AB" fill="none"/>
  <path d="m447.68854,153.07491c0.76923,1.53845 1.09863,4.17178 4.61536,8.4615c2.75873,3.36513 9.23071,6.15381 15.38455,8.4615l1.53845,1.53845" id="svg_97" stroke-width="5" stroke="#6D97AB" fill="none"/>
  <path d="m435.38089,212.3054c-0.76923,0.76923 -4.25507,5.78232 -8.46149,9.23073c-2.14487,1.75836 -3.84616,4.61537 -3.07693,7.69228l0.76923,1.53845" id="svg_98" stroke-width="5" stroke="#6D97AB" fill="none"/>
  <path d="m396.1503,172.30559c-0.76923,0.76923 -6.15381,3.84613 -8.46152,6.15382l-3.84613,1.53845l-2.30768,0.76923l-0.76923,0" id="svg_99" stroke-width="5" stroke="#6D97AB" fill="none"/>
  <path d="m463.84232,94.61362c0,0.76923 -0.43982,1.86411 3.0769,6.15382c2.75873,3.36513 6.15381,5.38459 9.99994,8.4615l1.53845,1.53845" id="svg_100" stroke-width="5" stroke="#6D97AB" fill="none"/>
  <path d="m474.61148,199.99777c-3.0769,2.30768 -7.69226,3.0769 -11.53842,3.0769l-2.30768,0.76923l-2.30768,0" id="svg_101" stroke-width="5" stroke="#6D97AB" fill="none"/>
  <path d="m348.45819,167.69022c0,0.76923 0.76923,0.76923 1.53845,0.76923l1.53845,0.76924" id="svg_103" stroke-width="5" stroke="#6D97AB" fill="none"/>
  <path d="m331.53519,213.07463c-0.76923,0.76923 -5.38458,5.3846 -8.46149,8.4615c-3.0769,3.0769 -5.38458,5.3846 -4.61536,6.92305l0.76923,0" id="svg_104" stroke-width="5" stroke="#6D97AB" fill="none"/>
  <path d="m339.9967,253.07446c0,0.76923 0.54932,1.70128 2.30768,3.84613c1.37936,1.68256 2.30768,2.30768 4.61536,3.84613l3.0769,1.53845l3.07693,2.30768" id="svg_105" stroke-width="5" stroke="#6D97AB" fill="none"/>
  <path d="m389.22723,263.84363c3.84616,3.07693 6.92307,5.38461 9.99997,6.92307l0.76923,0" id="svg_106" stroke-width="5" stroke="#6D97AB" fill="none"/>
  <path d="m325.38138,244.61296c0,0.76923 -2.86652,3.30276 -6.15381,6.15381c-2.90558,2.52 -4.61539,3.84615 -4.61539,5.3846l0,0.76923" id="svg_107" stroke-width="5" stroke="#6D97AB" fill="none"/>
  <path d="m312.3045,334.61255c0,0.76923 -0.21231,1.70978 2.30768,4.61536c2.13831,2.46548 3.84616,3.07693 5.38461,5.38461l0.76923,0.76923" id="svg_108" stroke-width="5" stroke="#6D97AB" fill="none"/>
  <path d="m356.15048,316.92032c0,0 -1.53845,2.30768 -3.0769,5.38461l-0.76923,3.0769l1.53845,3.0769" id="svg_109" stroke-width="5" stroke="#6D97AB" fill="none"/>
  <path d="m325.38138,362.30475c0,0.76923 1.39435,2.46677 3.0769,3.84613c2.14487,1.75836 6.15384,3.84613 14.61533,7.69226l3.84613,1.53845" id="svg_110" stroke-width="5" stroke="#6D97AB" fill="none"/>
  <path d="m382.3042,365.38165c1.53845,-0.76923 3.84613,-1.53845 6.15381,-3.84613l3.07693,-3.07693l4.61536,-6.15381" id="svg_111" stroke-width="5" stroke="#6D97AB" fill="none"/>
  <path d="m389.99649,319.228c-0.76926,-1.53845 -10.7692,-14.6153 -14.61533,-17.69223l-3.0769,-3.0769l-2.30771,-3.84613l0,-3.0769" id="svg_112" stroke-width="5" stroke="#6D97AB" fill="none"/>
  <path d="m374.61194,256.92059c0.76923,-0.76923 3.0769,-3.0769 6.92303,-6.15382l4.61536,-3.0769" id="svg_113" stroke-width="5" stroke="#6D97AB" fill="none"/>
  <path d="m420.76556,259.9975c-1.53845,1.53845 -3.0769,3.0769 -3.84613,5.38458l-0.76923,0l1.53845,3.07693l2.30768,3.0769" id="svg_114" stroke-width="5" stroke="#6D97AB" fill="none"/>
  <path d="m403.07333,318.45877c1.53845,0.76923 4.40305,4.01749 6.92307,6.92307c2.13831,2.46545 3.84613,5.38458 6.92303,9.99994l1.53845,1.53845" id="svg_115" stroke-width="5" stroke="#6D97AB" fill="none"/>
  <polyline stroke-linecap="round" id="svg_116" points="454.61157282435863,354.6124648726636 453.8423454860829,354.6124648726636 " stroke-width="5" stroke="#6D97AB" fill="none"/>
  <path d="m461.53461,315.38187c-1.53845,0.76923 -6.92303,3.84613 -13.84607,6.92307l-7.69229,3.0769l-5.38458,1.53845l-0.76923,0" id="svg_117" stroke-width="5" stroke="#6D97AB" fill="none"/>
  <path d="m427.68863,351.53555c-0.76923,0.76923 -2.30771,3.0769 -2.30771,6.92303l0.76923,2.30771l0,1.53845" id="svg_118" stroke-width="5" stroke="#6D97AB" fill="none"/>
  <path d="m459.99615,293.84351c0.76923,-0.76923 2.45078,-2.07117 3.84616,-3.0769c3.53006,-2.54428 6.15381,-6.15384 9.23071,-9.23074l2.30768,-1.53845" id="svg_120" stroke-width="5" stroke="#6D97AB" fill="none"/>
  <path d="m460.76538,241.53604c-0.76923,-0.76923 -2.21426,-1.1488 -4.61536,-1.53845c-2.27789,-0.36964 -4.61536,-1.53845 -7.69226,-3.84613l-1.53845,-0.76923" id="svg_121" stroke-width="5" stroke="#6D97AB" fill="none"/>
  <path d="m473.07303,217.69c0,0 -0.37595,3.09996 0,6.15381c0.38751,3.14786 3.0769,5.3846 6.15381,7.69228l1.53845,0" id="svg_122" stroke-width="5" stroke="#6D97AB" fill="none"/>
  <path d="m403.84256,193.07472c-1.53845,0 -3.0769,0.76923 -6.15381,2.30768c-3.0769,1.53847 -5.38458,1.53847 -6.92303,2.30769l-0.76923,0" id="svg_123" stroke-width="5" stroke="#6D97AB" fill="none"/>
  <path d="m406.91946,130.7673c-0.76923,-0.76923 -1.53845,-4.61536 -2.30768,-6.92304l-0.76923,-0.76923" id="svg_124" stroke-width="5" stroke="#6D97AB" fill="none"/>
  <path d="m343.84283,92.30594c0,0.76923 0.88022,2.25703 1.53845,3.84614c0.93088,2.24735 3.84613,5.38459 6.92307,9.99995l0.76923,1.53846" id="svg_125" stroke-width="5" stroke="#6D97AB" fill="none"/>
  <path d="m453.84235,140.76726c0.76923,0 0.76923,0.76924 2.30768,1.53847l3.0769,0l3.0769,0l2.30771,0.76923" id="svg_126" stroke-width="5" stroke="#6D97AB" fill="none"/>
  <path d="m481.53452,357.68936c0.76926,-0.76923 1.65558,-0.18048 3.07693,-0.76923c5.02521,-2.08151 5.38458,-7.69226 7.69226,-11.53839l1.53845,-3.84613l0.76923,-2.30771" id="svg_127" stroke-width="5" stroke="#6D97AB" fill="none"/>
  <path d="m487.68835,313.07419c-0.76923,0 -1.53845,0 -2.30768,0c-0.76923,0 -3.0769,-0.76923 -5.38461,-3.84613l-3.0769,-3.0769l-3.0769,-3.84616" id="svg_128" stroke-width="5" stroke="#6D97AB" fill="none"/>
  <path d="m485.38068,144.6134c0,1.53845 0,4.61536 -0.76923,5.38458l0,0.76924l0,3.0769l0,3.0769" id="svg_129" stroke-width="5" stroke="#6D97AB" fill="none"/>
  <path d="m343.84283,127.6904c2.30768,2.30768 6.92303,4.61537 9.99997,6.15382l3.0769,0l3.0769,-0.76923" id="svg_130" stroke-width="5" stroke="#6D97AB" fill="none"/>
  <path d="m405.38101,93.8444c0.76923,0 1.57962,0.35347 3.07693,0c1.67404,-0.39519 2.30768,-1.53846 3.0769,-1.53846l0.76923,-0.76923l1.53845,0" id="svg_131" stroke-width="5" stroke="#6D97AB" fill="none"/>
  <path d="m323.0737,129.99808c0,0 -1.53845,1.53845 -3.0769,2.30769l0,0.76923" id="svg_132" stroke-width="5" stroke="#6D97AB" fill="none"/>
 </g>
</svg>
    <svg width="800" height="600" xmlns="http://www.w3.org/2000/svg">
 <title>body-3</title>

 <g>
  <title>Layer 1</title>
  <rect id="svg_20" height="300" width="200" y="80" x="300" stroke-width="5" stroke="#000" fill="#FFAAB8"/>
 </g>
</svg>
    <svg width="800" height="600" xmlns="http://www.w3.org/2000/svg">
 <title>handle-1</title>

 <g>
  <title>Layer 1</title>
  <rect fill="#FFFA8D" x="380" y="380" width="40" height="150" id="svg_2" stroke="#000" stroke-width="5"/>
  <path fill="none" stroke-width="5" id="svg_4" d="m345,466c2,0 5.09576,-0.69101 12,-3c13.20929,-4.41757 27.16144,-9.36725 44,-14c19.21103,-5.28549 45.83023,-17.44321 61,-23c14.84665,-5.43845 30,-9 42,-9c11,0 19.22729,3.78491 23,8c4.27039,4.77115 11,17.92892 11,25c0,7.07108 -3.68182,17.63861 -10,29c-8.36163,15.03604 -20.8158,29.91049 -36,38c-15.08124,8.03467 -27.30804,11.90967 -31,14c-3.58792,2.03143 -8,1 -13,-2l-9,-5l-3,-6l-2,-3"/>
 </g>
</svg>
</svg>