<svg width="800" height="600" xmlns="http://www.w3.org/2000/svg">
    <svg width="800" height="600" xmlns="http://www.w3.org/2000/svg">
 <title>candy-2</title>

 <g>
  <title>Layer 1</title>
  <path d="m323.0737,103.84435c0.76923,0 1.31854,0.93205 3.0769,3.07691c1.37936,1.68256 3.0769,3.0769 5.38458,5.38459l1.53845,1.53845" id="svg_62" stroke-width="5" stroke="#bf0000" fill="none"/>
  <polyline stroke-linecap="round" id="svg_84" points="329.2275166854114,195.38240584958328 329.99674402368714,196.92086052613476 329.99674402368714,196.92086052613476 " stroke-width="5" stroke="#bf0000" fill="none"/>
  <path d="m322.30447,287.6897c0,0.76923 0.38171,3.00598 0.76923,6.15381c0.28195,2.29037 0,5.38458 3.84613,9.99997l3.0769,4.61536" id="svg_86" stroke-width="5" stroke="#bf0000" fill="none"/>
  <path d="m368.4581,331.53564c0.76923,1.53845 1.53845,3.0769 2.30771,3.84613l4.61536,0.76923l3.84613,1.53845" id="svg_87" stroke-width="5" stroke="#bf0000" fill="none"/>
  <path d="m354.61203,286.92047c-1.53845,3.84613 -2.86896,6.32983 -6.15384,9.99994c-2.17654,2.43176 -4.61536,3.0769 -5.38458,3.0769l-0.76923,0" id="svg_90" stroke-width="5" stroke="#bf0000" fill="none"/>
  <path d="m398.45798,144.6134c-1.53845,0.76923 -4.61536,3.0769 -7.69226,3.84613l-3.07693,0l-4.61536,2.30769l-3.0769,0.76923" id="svg_93" stroke-width="5" stroke="#bf0000" fill="none"/>
  <path d="m337.68903,143.07495c-0.76923,0.76923 -2.28348,3.39389 -3.84613,6.15381c-1.60797,2.83997 -4.61539,5.3846 -6.15384,9.23073l-1.53845,3.84615" id="svg_94" stroke-width="5" stroke="#bf0000" fill="none"/>
  <path d="m369.99655,117.69044c0.76926,-0.76923 3.88733,-1.18498 5.38461,-1.53845c1.67404,-0.39519 3.84613,-3.07691 6.92303,-6.15382l3.0769,-3.0769l1.53845,-1.53846" id="svg_95" stroke-width="5" stroke="#bf0000" fill="none"/>
  <path d="m426.9194,106.92126c-0.76926,1.53845 -0.76926,4.61536 0.76923,9.23073l3.84613,4.61536l3.0769,3.0769" id="svg_96" stroke-width="5" stroke="#bf0000" fill="none"/>
  <path d="m447.68854,153.07491c0.76923,1.53845 1.09863,4.17178 4.61536,8.4615c2.75873,3.36513 9.23071,6.15381 15.38455,8.4615l1.53845,1.53845" id="svg_97" stroke-width="5" stroke="#bf0000" fill="none"/>
  <path d="m463.84232,94.61362c0,0.76923 -0.43982,1.86411 3.0769,6.15382c2.75873,3.36513 6.15381,5.38459 9.99994,8.4615l1.53845,1.53845" id="svg_100" stroke-width="5" stroke="#bf0000" fill="none"/>
  <path d="m474.61148,199.99777c-3.0769,2.30768 -7.69226,3.0769 -11.53842,3.0769l-2.30768,0.76923l-2.30768,0" id="svg_101" stroke-width="5" stroke="#bf0000" fill="none"/>
  <path d="m348.45819,167.69022c0,0.76923 0.76923,0.76923 1.53845,0.76923l1.53845,0.76924" id="svg_103" stroke-width="5" stroke="#bf0000" fill="none"/>
  <path d="m331.53519,213.07463c-0.76923,0.76923 -5.38458,5.3846 -8.46149,8.4615c-3.0769,3.0769 -5.38458,5.3846 -4.61536,6.92305l0.76923,0" id="svg_104" stroke-width="5" stroke="#bf0000" fill="none"/>
  <path d="m325.38138,244.61296c0,0.76923 -2.86652,3.30276 -6.15381,6.15381c-2.90558,2.52 -4.61539,3.84615 -4.61539,5.3846l0,0.76923" id="svg_107" stroke-width="5" stroke="#bf0000" fill="none"/>
  <path d="m312.3045,334.61255c0,0.76923 -0.21231,1.70978 2.30768,4.61536c2.13831,2.46548 3.84616,3.07693 5.38461,5.38461l0.76923,0.76923" id="svg_108" stroke-width="5" stroke="#bf0000" fill="none"/>
  <path d="m356.15048,316.92032c0,0 -1.53845,2.30768 -3.0769,5.38461l-0.76923,3.0769l1.53845,3.0769" id="svg_109" stroke-width="5" stroke="#bf0000" fill="none"/>
  <path d="m325.38138,362.30475c0,0.76923 1.39435,2.46677 3.0769,3.84613c2.14487,1.75836 6.15384,3.84613 14.61533,7.69226l3.84613,1.53845" id="svg_110" stroke-width="5" stroke="#bf0000" fill="none"/>
  <path d="m382.3042,365.38165c1.53845,-0.76923 3.84613,-1.53845 6.15381,-3.84613l3.07693,-3.07693l4.61536,-6.15381" id="svg_111" stroke-width="5" stroke="#bf0000" fill="none"/>
  <path d="m406.91949,335.38177c-0.76926,-1.53845 -10.7692,-14.6153 -14.61533,-17.69223l-3.0769,-3.0769l-2.30771,-3.84613l0,-3.0769" id="svg_112" stroke-width="5" stroke="#bf0000" fill="none"/>
  <path d="m437.68856,321.53568c1.53845,0.76923 4.40305,4.01749 6.92307,6.92307c2.13831,2.46545 3.84613,5.38458 6.92303,9.99994l1.53845,1.53845" id="svg_115" stroke-width="5" stroke="#bf0000" fill="none"/>
  <polyline stroke-linecap="round" id="svg_116" points="454.61157282435863,354.6124648726636 453.8423454860829,354.6124648726636 " stroke-width="5" stroke="#bf0000" fill="none"/>
  <path d="m439.99624,295.38196c-1.53845,0.76923 -6.92303,3.84613 -13.84607,6.92307l-7.69229,3.0769l-5.38458,1.53845l-0.76923,0" id="svg_117" stroke-width="5" stroke="#bf0000" fill="none"/>
  <path d="m427.68863,351.53555c-0.76923,0.76923 -2.30771,3.0769 -2.30771,6.92303l0.76923,2.30771l0,1.53845" id="svg_118" stroke-width="5" stroke="#bf0000" fill="none"/>
  <path d="m459.99615,293.84351c0.76923,-0.76923 2.45078,-2.07117 3.84616,-3.0769c3.53006,-2.54428 6.15381,-6.15384 9.23071,-9.23074l2.30768,-1.53845" id="svg_120" stroke-width="5" stroke="#bf0000" fill="none"/>
  <path d="m471.53457,226.1515c0,0 -0.37595,3.09996 0,6.15381c0.38751,3.14786 3.0769,5.3846 6.15381,7.69228l1.53845,0" id="svg_122" stroke-width="5" stroke="#bf0000" fill="none"/>
  <path d="m406.91946,130.7673c-0.76923,-0.76923 -1.53845,-4.61536 -2.30768,-6.92304l-0.76923,-0.76923" id="svg_124" stroke-width="5" stroke="#bf0000" fill="none"/>
  <path d="m343.84283,92.30594c0,0.76923 0.88022,2.25703 1.53845,3.84614c0.93088,2.24735 3.84613,5.38459 6.92307,9.99995l0.76923,1.53846" id="svg_125" stroke-width="5" stroke="#bf0000" fill="none"/>
  <path d="m453.84235,140.76726c0.76923,0 0.76923,0.76924 2.30768,1.53847l3.0769,0l3.0769,0l2.30771,0.76923" id="svg_126" stroke-width="5" stroke="#bf0000" fill="none"/>
  <path d="m481.53452,357.68936c0.76926,-0.76923 1.65558,-0.18048 3.07693,-0.76923c5.02521,-2.08151 5.38458,-7.69226 7.69226,-11.53839l1.53845,-3.84613l0.76923,-2.30771" id="svg_127" stroke-width="5" stroke="#bf0000" fill="none"/>
  <path d="m487.68835,313.07419c-0.76923,0 -1.53845,0 -2.30768,0c-0.76923,0 -3.0769,-0.76923 -5.38461,-3.84613l-3.0769,-3.0769l-3.0769,-3.84616" id="svg_128" stroke-width="5" stroke="#bf0000" fill="none"/>
  <path d="m485.38068,144.6134c0,1.53845 0,4.61536 -0.76923,5.38458l0,0.76924l0,3.0769l0,3.0769" id="svg_129" stroke-width="5" stroke="#bf0000" fill="none"/>
  <path d="m343.84283,127.6904c2.30768,2.30768 6.92303,4.61537 9.99997,6.15382l3.0769,0l3.0769,-0.76923" id="svg_130" stroke-width="5" stroke="#bf0000" fill="none"/>
  <path d="m405.38101,93.8444c0.76923,0 1.57962,0.35347 3.07693,0c1.67404,-0.39519 2.30768,-1.53846 3.0769,-1.53846l0.76923,-0.76923l1.53845,0" id="svg_131" stroke-width="5" stroke="#bf0000" fill="none"/>
  <path d="m323.0737,129.99808c0,0 -1.53845,1.53845 -3.0769,2.30769l0,0.76923" id="svg_132" stroke-width="5" stroke="#bf0000" fill="none"/>
  <g id="svg_140">
   <ellipse ry="63.07664" rx="63.07664" id="svg_134" cy="229.22841" cx="399.22719" stroke-width="5" stroke="#ff0000" fill="#ffffff"/>
   <path stroke-width="5" d="m349.22743,191.53627c0,0.76923 -1.88339,2.92741 -3.07693,6.15382c-1.10037,2.97459 -1.29202,5.40446 -1.53845,6.92305c-0.38965,2.40109 -1.92117,4.55827 -2.30768,8.4615c-0.22739,2.29645 -0.37595,5.40764 0,8.46149c0.38751,3.14786 1.92017,6.08289 2.30768,9.23073c0.18799,1.52695 0.25537,3.25336 1.53845,6.15382c1.12204,2.53641 2.0712,3.98923 3.07693,5.3846c1.27216,1.76501 1.30194,2.45076 2.30768,3.84613c1.27216,1.76501 3.84613,3.84615 4.61536,4.61537c1.53845,1.53845 2.44083,2.1944 3.0769,3.0769c1.00574,1.39536 2.47049,3.62622 4.61536,5.38458c1.68256,1.37936 3.07693,3.0769 3.84616,3.84613c1.53845,1.53848 3.84613,3.07693 6.92303,5.38461c3.0769,2.30768 5.44492,3.68448 7.69226,4.61536c3.17825,1.31647 5.95901,2.59332 9.23074,4.61536c2.9263,1.80856 6.15381,3.0769 9.99994,3.0769c3.07693,0 6.19357,0.49286 9.23074,0c2.40109,-0.38965 4.67569,-1.3768 6.92303,-2.30768c3.17822,-1.31647 6.5831,-3.13663 10.7692,-6.15381c2.64752,-1.90823 3.84613,-3.84613 5.38458,-5.38458c1.53845,-1.53845 3.84613,-3.84616 6.15381,-6.15384c2.30771,-2.30768 4.36884,-3.5162 6.15384,-6.92303c1.12894,-2.15466 1.53845,-4.61537 2.30768,-7.69228c0.76923,-3.0769 1.92017,-5.31364 2.30768,-8.4615c0.28195,-2.29039 0,-5.38458 0,-9.23073c0,-2.30768 -0.37958,-4.52194 -0.76923,-6.92305c-0.49286,-3.03717 -0.34494,-5.23508 -1.53845,-8.46149c-1.10037,-2.97461 -2.11948,-5.48613 -3.84613,-8.4615c-1.39209,-2.39883 -3.84613,-3.84613 -6.15384,-6.15382c-1.53845,-1.53845 -4.02216,-4.40738 -7.69226,-7.69228c-1.62119,-1.45102 -3.11807,-1.95421 -4.61536,-2.30768c-3.34805,-0.79037 -5.31369,-1.92017 -8.46152,-2.30768c-1.52692,-0.18797 -3.84613,-0.76923 -8.46149,-0.76923c-3.0769,0 -6.15384,-0.76923 -9.23074,-0.76923c-3.0769,0 -5.41437,-0.36964 -7.69226,0c-2.40109,0.38965 -4.78668,0.5569 -7.69229,3.0769c-2.46545,2.13828 -3.78268,5.42816 -5.38458,7.69228c-2.22141,3.13976 -3.0769,5.38458 -4.61536,8.4615c-1.53845,3.0769 -2.52966,6.05249 -3.84613,9.23073c-0.93088,2.24734 -1.15094,4.54442 -1.53845,7.69226c-0.28195,2.29041 -0.88022,4.56471 -1.53845,6.15382c-0.93088,2.24734 -1.15195,4.55829 -1.53845,8.4615c-0.22739,2.29645 -0.49286,3.11664 0,6.15382c0.38965,2.40109 2.1944,3.97928 3.0769,4.61536c1.39536,1.00572 3.31537,1.02882 5.38458,2.30768c1.85077,1.14384 3.0769,2.30769 5.38458,3.07692c2.30768,0.76923 3.84613,0.76923 6.15384,1.53845c2.30768,0.76923 4.54443,2.68939 7.69226,3.0769c2.29037,0.28195 5.38458,0 7.69226,0c2.30771,0 4.61539,-0.76923 6.15384,-1.53845c1.53845,-0.76923 4.75845,-2.07118 6.15381,-3.0769c1.76501,-1.27216 3.21005,-2.96364 3.84613,-3.84615c1.00574,-1.39537 1.53845,-3.0769 3.0769,-4.61536c1.53848,-1.53847 2.30771,-2.30768 3.07693,-3.84615c0.76923,-1.53845 1.68481,-3.75499 3.0769,-6.15381c0.86334,-1.48769 1.15195,-3.01984 1.53845,-6.92305c0.15158,-1.53096 0,-3.84613 0,-6.15382c0,-2.30768 0.16165,-4.67569 -0.76923,-6.92303c-0.65823,-1.58913 -1.53845,-4.61537 -3.0769,-7.69228c-0.76923,-1.53845 -0.76923,-2.30768 -1.53845,-3.07692c-0.76923,-0.76923 -1.53848,-0.76923 -3.07693,-0.76923c-0.76923,0 -3.02625,0.11099 -4.61536,0.76923c-2.24734,0.93089 -3.84613,0.76924 -6.15381,1.53847c-2.30768,0.76923 -4.08459,1.79805 -6.15384,3.0769c-1.85077,1.14383 -3.32587,1.93857 -4.61536,3.0769c-2.07922,1.83551 -4.00522,3.70204 -5.38458,5.3846c-1.75836,2.14485 -3.15643,3.77408 -3.84613,4.61536c-1.75836,2.14487 -3.05576,3.575 -3.84613,6.92305c-0.53018,2.24594 -1.18503,4.65652 -1.53848,6.15382c-0.39517,1.67403 -0.76923,3.84613 -0.76923,5.38458c0,1.53845 -0.47162,3.78276 1.53845,4.61537c1.42139,0.58875 3.0968,1.01566 4.61539,0.76923c2.40109,-0.38965 3.89691,-1.44434 5.38458,-2.30768c2.3988,-1.39209 4.3992,-2.54633 6.92303,-4.61537c2.14487,-1.75836 4.552,-1.83604 5.38461,-3.84613c0.29437,-0.71068 1.89139,-1.30264 2.30768,-2.30769c0.58875,-1.42134 1.14328,-2.94133 1.53845,-4.61536c0.35345,-1.4973 0,-3.0769 0,-3.84613c0,-1.53847 0,-2.30769 -0.76923,-2.30769c-0.76923,0 -1.53845,0 -2.30768,0c-0.76923,0 -1.68155,0.53271 -3.0769,1.53845c-0.88251,0.63609 -2.30771,2.30769 -3.84616,2.30769l-0.76923,0.76923l-0.76923,1.53845" id="svg_138" stroke="#ff0000" fill="none"/>
  </g>
 </g>
</svg>
    <svg width="800" height="600" xmlns="http://www.w3.org/2000/svg">
 <title>body-3</title>

 <g>
  <title>Layer 1</title>
  <rect id="svg_20" height="300" width="200" y="80" x="300" stroke-width="5" stroke="#000" fill="#FFAAB8"/>
 </g>
</svg>
    <svg width="800" height="600" xmlns="http://www.w3.org/2000/svg">
 <title>handle-1</title>

 <g>
  <title>Layer 1</title>
  <rect fill="#FFFA8D" x="380" y="380" width="40" height="150" id="svg_2" stroke="#000" stroke-width="5"/>
  <path fill="none" stroke-width="5" id="svg_4" d="m345,466c2,0 5.09576,-0.69101 12,-3c13.20929,-4.41757 27.16144,-9.36725 44,-14c19.21103,-5.28549 45.83023,-17.44321 61,-23c14.84665,-5.43845 30,-9 42,-9c11,0 19.22729,3.78491 23,8c4.27039,4.77115 11,17.92892 11,25c0,7.07108 -3.68182,17.63861 -10,29c-8.36163,15.03604 -20.8158,29.91049 -36,38c-15.08124,8.03467 -27.30804,11.90967 -31,14c-3.58792,2.03143 -8,1 -13,-2l-9,-5l-3,-6l-2,-3"/>
 </g>
</svg>
</svg>