<svg width="800" height="600" xmlns="http://www.w3.org/2000/svg">
 <title>handle-1</title>

 <g>
  <title>Layer 1</title>
  <rect fill="#FFFA8D" x="380" y="380" width="40" height="150" id="svg_2" stroke="#000" stroke-width="5"/>
  <path fill="none" stroke-width="5" id="svg_4" d="m345,466c2,0 5.09576,-0.69101 12,-3c13.20929,-4.41757 27.16144,-9.36725 44,-14c19.21103,-5.28549 45.83023,-17.44321 61,-23c14.84665,-5.43845 30,-9 42,-9c11,0 19.22729,3.78491 23,8c4.27039,4.77115 11,17.92892 11,25c0,7.07108 -3.68182,17.63861 -10,29c-8.36163,15.03604 -20.8158,29.91049 -36,38c-15.08124,8.03467 -27.30804,11.90967 -31,14c-3.58792,2.03143 -8,1 -13,-2l-9,-5l-3,-6l-2,-3"/>
 </g>
</svg>